<svg version="1.1" id="Layer_1" xmlns="http://www.w3.org/2000/svg" xmlns:xlink="http://www.w3.org/1999/xlink" x="0px" y="0px"
	 width="100%" viewBox="0 0 592 592" enable-background="new 0 0 592 592" xml:space="preserve">
<path fill="#000000" opacity="1.000000" stroke="none" 
	d="
M341.515442,137.507996 
	C344.350433,134.665176 346.913452,132.045639 349.541687,129.493271 
	C358.920898,120.384766 369.279968,120.437302 378.566956,129.709778 
	C398.608398,149.719818 418.613342,169.766403 438.631927,189.799332 
	C440.751556,191.920471 442.861084,194.051666 444.977997,196.175522 
	C454.139862,205.367264 454.346344,215.873795 445.346039,225.241730 
	C439.114685,231.727585 432.675598,238.014114 426.320648,244.381012 
	C417.847198,252.870514 409.389526,261.375977 400.878296,269.827484 
	C395.377411,275.289734 392.347931,275.308167 386.969055,269.933075 
	C359.630951,242.614471 332.302460,215.286209 304.994598,187.937393 
	C299.375549,182.309891 299.355072,179.728256 304.890717,174.163437 
	C316.989410,162.000946 329.142487,149.892563 341.515442,137.507996 
z"/>
<path fill="#000000" opacity="1.000000" stroke="none" 
	d="
M153.919067,357.351990 
	C156.376663,359.090851 155.329147,361.196136 154.934280,362.993866 
	C153.079742,371.437073 151.249313,379.896057 148.987366,388.234741 
	C147.905563,392.222839 148.388519,395.130096 151.430435,398.087158 
	C160.147415,406.561035 168.675125,415.232208 177.166168,423.934174 
	C179.371582,426.194397 181.493668,426.946259 184.703247,426.161377 
	C200.844833,422.214172 217.048431,418.520966 233.223404,414.709534 
	C234.507675,414.406891 235.780365,413.975311 236.988174,413.443939 
	C239.886551,412.168732 240.210068,410.343475 237.973953,408.078522 
	C236.569534,406.656036 235.192871,405.206024 233.779984,403.792145 
	C220.002136,390.004822 206.211807,376.229980 192.450607,362.426117 
	C191.211731,361.183411 189.591858,360.147858 189.176544,357.464691 
	C196.980804,357.363403 204.332077,354.960510 210.923676,362.117249 
	C221.969711,374.110382 233.841919,385.344238 245.420319,396.843384 
	C246.921432,398.334198 248.146835,400.230042 251.373474,401.347015 
	C256.239380,396.284607 261.354675,390.852142 266.591827,385.539856 
	C274.544220,377.473419 282.576355,369.485504 290.584229,361.473846 
	C295.350586,356.705261 304.420990,355.316437 311.188782,358.308777 
	C311.196320,360.264343 309.560944,361.105011 308.427856,362.241211 
	C291.958435,378.755127 274.994598,394.809601 259.158417,411.908813 
	C249.711029,422.109650 238.776337,427.522583 225.427231,430.358154 
	C194.863007,436.850433 164.479019,444.194305 134.038620,451.264557 
	C124.875427,453.392792 121.485130,450.203033 123.598495,440.878815 
	C129.364731,415.438141 135.205856,390.014313 141.088440,364.600250 
	C142.869949,356.903748 142.976318,356.923767 151.059448,357.037445 
	C151.889145,357.049103 152.717484,357.157349 153.919067,357.351990 
M141.026459,423.312988 
	C140.199844,427.426819 138.677475,431.428436 138.603622,436.250214 
	C147.315369,434.752380 155.491776,433.299438 164.106216,430.092010 
	C157.744049,422.833862 151.491394,416.657227 144.219574,410.099579 
	C143.070908,414.873688 142.152191,418.692047 141.026459,423.312988 
z"/>
<path fill="#000000" opacity="1.000000" stroke="none" 
	d="
M368.745789,378.496582 
	C364.889191,376.776459 361.471283,375.066498 358.389099,372.739960 
	C355.631622,370.658447 353.526581,367.993805 352.795105,364.688629 
	C351.393982,358.357758 352.942322,356.656342 358.174011,357.096680 
	C360.947052,357.330078 363.821167,356.494415 366.932159,358.042358 
	C364.609924,361.673950 367.018738,363.229187 369.869568,364.661896 
	C379.083588,369.292267 389.129395,370.853699 399.108154,372.664154 
	C416.578217,375.833679 434.450714,376.915710 451.423584,382.640411 
	C454.559540,383.698151 457.666931,385.008118 460.546692,386.629425 
	C473.869629,394.130219 475.135834,409.702118 463.147980,419.254913 
	C452.195679,427.982513 439.111359,431.972260 425.814331,435.295807 
	C405.289673,440.425873 384.408051,443.231934 363.385559,445.578766 
	C323.630005,450.016785 283.762115,451.720062 243.811020,452.250275 
	C236.446732,452.348022 232.942673,450.099274 232.983917,445.622589 
	C233.025940,441.059265 236.412827,439.082947 243.874634,438.943695 
	C264.688416,438.555298 285.544006,438.769073 306.301727,437.457489 
	C329.342407,436.001648 352.395416,434.337372 375.304230,431.034088 
	C396.880341,427.922943 418.429138,424.909607 439.144104,417.774261 
	C444.519165,415.922791 449.730896,413.632843 454.145599,409.983337 
	C460.250702,404.936462 459.778473,400.404846 452.614929,397.063660 
	C442.709198,392.443512 431.941650,391.031433 421.281158,389.264343 
	C403.762299,386.360413 385.971680,384.766754 368.745789,378.496582 
z"/>
<path fill="#000000" opacity="1.000000" stroke="none" 
	d="
M468.661835,156.389832 
	C461.641968,165.337509 453.182251,172.317383 445.970245,180.023987 
	C443.504242,179.494980 442.467072,178.114914 441.309662,176.962234 
	C426.803375,162.515747 412.384857,147.980194 397.778351,133.635971 
	C394.775085,130.686615 394.238953,128.647614 397.596924,125.569649 
	C403.113007,120.513496 408.170319,114.960922 413.575409,109.778679 
	C422.594147,101.131767 432.958557,101.249496 441.845520,110.034927 
	C449.657349,117.757561 457.450165,125.501556 465.132568,133.352325 
	C472.062286,140.433914 473.056610,147.028473 468.661835,156.389832 
z"/>
<path fill="#000000" opacity="1.000000" stroke="none" 
	d="
M255.020370,184.019547 
	C258.702179,180.369553 262.035095,176.863739 265.571899,173.577301 
	C269.364410,170.053253 272.422852,169.928635 276.100464,173.439957 
	C282.485779,179.536530 288.678802,185.836823 294.878662,192.124435 
	C298.130249,195.422043 298.143188,199.043915 294.944794,202.301636 
	C285.025421,212.404907 275.048035,222.453491 264.946716,232.374237 
	C262.165802,235.105438 258.549835,235.831558 255.579865,232.765411 
	C252.503754,229.589706 253.147598,226.002975 256.163422,223.005081 
	C264.540741,214.677582 273.001587,206.434097 281.498444,198.089661 
	C279.133087,193.876144 275.804291,191.354492 272.867920,188.518875 
	C270.443390,186.177490 268.961395,188.576187 267.518585,190.007538 
	C256.044891,201.390182 244.610001,212.811996 233.180069,224.238663 
	C223.635345,233.780670 214.122849,243.354965 204.570175,252.889008 
	C203.278000,254.178665 201.984970,255.581375 200.427765,256.466064 
	C197.799179,257.959473 194.937698,258.139435 192.572647,255.893951 
	C190.039337,253.488739 190.095184,250.548248 191.702682,247.667770 
	C192.334457,246.535645 193.376846,245.611313 194.313980,244.674057 
	C214.456070,224.529160 234.609787,204.395844 255.020370,184.019547 
z"/>
<path fill="#000000" opacity="1.000000" stroke="none" 
	d="
M230.280792,267.281006 
	C227.436676,270.118286 224.935089,272.807343 222.224915,275.266541 
	C218.933853,278.252869 214.744476,278.484161 212.396027,275.754791 
	C209.478867,272.364471 210.198608,268.950439 213.149048,265.970276 
	C220.881104,258.160370 228.607635,250.341599 236.499146,242.694351 
	C240.272675,239.037613 243.837250,238.916779 246.559219,242.014389 
	C249.617386,245.494583 248.480560,248.851608 245.659119,251.778976 
	C240.690338,256.934235 235.581238,261.954285 230.280792,267.281006 
z"/>
<path fill="#000000" opacity="1.000000" stroke="none" 
	d="
M315.867493,330.929962 
	C310.212463,319.679291 313.696533,308.431824 323.540802,305.305481 
	C328.246521,303.811035 332.532379,304.964081 336.041687,308.197723 
	C343.171997,314.768066 341.416534,329.513092 333.070068,334.472961 
	C327.341339,337.877228 321.330627,336.740112 315.867493,330.929962 
M331.961273,329.452271 
	C335.753387,324.612213 335.732788,319.274078 333.564331,313.917389 
	C332.388397,311.012543 330.033783,309.068939 326.586334,309.160767 
	C323.178925,309.251495 321.051697,311.238678 319.734833,314.151215 
	C317.940369,318.120056 317.766998,322.178894 319.461487,326.256531 
	C321.818634,331.928802 325.858429,333.191315 331.961273,329.452271 
z"/>
<path fill="#000000" opacity="1.000000" stroke="none" 
	d="
M206.311584,328.059387 
	C205.591522,330.835022 208.238800,335.084839 203.739441,335.163239 
	C199.293945,335.240692 201.048431,331.011597 200.948929,328.570953 
	C200.691574,322.258331 200.823746,315.930115 200.786270,309.608185 
	C200.775040,307.712982 200.676910,305.795380 203.406586,305.790253 
	C206.005310,305.785400 206.099335,307.589813 206.301468,309.527954 
	C206.568451,312.088043 204.947021,315.669403 207.490280,316.986755 
	C210.851700,318.727905 215.022964,317.947266 218.772675,317.427277 
	C221.505920,317.048248 220.394257,314.289093 220.826080,312.476044 
	C221.382477,310.139832 218.772415,305.810272 223.524139,305.996552 
	C227.791351,306.163879 226.040726,310.339264 226.140945,312.804413 
	C226.397583,319.116699 226.253174,325.445496 226.256302,331.767700 
	C226.257126,333.443665 226.430466,335.238251 223.940170,335.339966 
	C221.454941,335.441437 220.806961,333.959503 220.826401,331.852020 
	C220.829468,331.519409 220.810211,331.186646 220.809631,330.853973 
	C220.794373,321.971497 222.335571,322.361084 211.679153,322.194244 
	C207.616943,322.130646 205.714432,323.441376 206.311584,328.059387 
z"/>
<path fill="#000000" opacity="1.000000" stroke="none" 
	d="
M269.655182,313.302460 
	C269.653290,310.706940 269.653290,308.571228 269.653290,306.241455 
	C273.461548,305.363159 277.013153,304.889160 280.656097,305.707458 
	C285.609161,306.820068 287.921967,310.761963 285.951599,315.460938 
	C285.080200,317.539124 284.723816,318.894104 286.449829,320.731781 
	C289.163300,323.620819 288.880066,327.167389 287.395966,330.537903 
	C285.890228,333.957611 282.930756,335.198364 279.319794,335.373932 
	C269.653595,335.843964 269.653412,335.880493 269.648407,326.260406 
	C269.646240,322.094360 269.653900,317.928314 269.655182,313.302460 
M274.580902,326.331726 
	C274.855804,328.153473 273.686646,330.870636 276.268646,331.405579 
	C279.160522,332.004700 281.964081,330.956177 282.899689,327.671661 
	C283.798401,324.516571 282.194031,322.726532 279.206848,321.803894 
	C275.593658,320.687958 274.865753,322.796814 274.580902,326.331726 
M275.797821,309.566254 
	C274.141754,312.509003 272.609039,315.707062 276.904510,317.480560 
	C279.025818,318.356384 281.222412,317.118439 281.562836,314.407837 
	C282.044495,310.572235 279.571777,309.599579 275.797821,309.566254 
z"/>
<path fill="#000000" opacity="1.000000" stroke="none" 
	d="
M413.922729,334.503296 
	C411.830872,331.867828 410.044067,329.473846 408.216888,327.111176 
	C407.383942,326.034149 406.398132,325.030457 404.874664,325.458160 
	C403.174225,325.935486 403.405090,327.465820 403.373932,328.759583 
	C403.326965,330.711700 403.361755,332.665771 403.361755,334.735046 
	C400.705170,335.621185 398.794830,335.460052 398.768646,332.284424 
	C398.697693,323.683685 398.744324,315.081940 398.744324,306.162598 
	C402.578888,305.344849 406.238159,305.333832 409.776581,305.884827 
	C416.160248,306.878845 419.574310,314.677887 415.289062,319.688629 
	C411.849609,323.710388 413.532227,325.968567 415.938202,328.981598 
	C417.237854,330.609161 419.079346,332.002777 419.247040,334.464722 
	C417.624176,335.927063 415.923218,335.415436 413.922729,334.503296 
M407.513824,320.085144 
	C408.340393,319.534027 409.283386,319.098969 409.971100,318.409393 
	C411.834076,316.541199 412.281158,314.361389 410.723907,312.096436 
	C409.354736,310.104919 406.930328,309.136688 405.042603,309.947113 
	C401.865417,311.311188 403.701874,314.640533 403.397064,317.104889 
	C403.102478,319.486908 403.983734,321.081604 407.513824,320.085144 
z"/>
<path fill="#000000" opacity="1.000000" stroke="none" 
	d="
M344.463440,315.043518 
	C348.898712,305.753204 356.796906,302.356232 364.485016,306.210846 
	C366.021484,306.981171 368.261078,307.771851 367.230804,310.174530 
	C366.113159,312.780884 364.392548,311.371552 362.737305,310.501892 
	C358.952728,308.513397 355.342194,308.714172 352.224426,311.874603 
	C348.877441,315.267395 347.941162,321.865112 350.175110,326.378662 
	C352.160217,330.389343 355.437164,332.172089 359.928894,331.876434 
	C362.641083,331.697937 363.811646,330.369263 363.640320,327.699127 
	C363.503052,325.559845 363.435364,323.416138 363.326416,321.049377 
	C366.272614,319.707214 368.116943,320.109009 368.274475,323.779694 
	C368.281616,323.946045 368.278595,324.113007 368.290802,324.278931 
	C369.022308,334.227814 368.172882,335.553162 360.603699,336.269714 
	C351.711273,337.111572 344.698029,332.218445 343.822418,324.339813 
	C343.494415,321.388306 343.308777,318.351929 344.463440,315.043518 
z"/>
<path fill="#000000" opacity="1.000000" stroke="none" 
	d="
M237.644104,335.578766 
	C234.803680,334.943146 235.097763,332.906372 235.074585,331.130981 
	C234.979263,323.827393 234.938339,316.522980 234.902496,309.218781 
	C234.898483,308.401215 234.824249,307.460510 235.181625,306.789398 
	C236.022079,305.211060 249.536789,305.051758 250.471832,306.595184 
	C251.192581,307.784790 250.871567,308.994629 249.480759,309.360443 
	C248.061737,309.733673 246.531418,309.896881 245.064667,309.829376 
	C242.339432,309.704010 240.193985,309.694641 240.193039,313.512177 
	C240.192200,316.893829 241.582687,317.847992 244.674652,317.772247 
	C246.283707,317.732819 248.867722,317.054840 248.877960,319.833008 
	C248.887268,322.357483 246.533020,322.375641 244.750061,322.217926 
	C240.666733,321.856659 240.280655,324.157654 240.191269,327.433136 
	C240.085022,331.326172 242.182007,331.764282 245.216690,331.659271 
	C247.005722,331.597382 248.868988,331.205231 250.599106,332.084625 
	C250.134109,335.411957 250.134109,335.411957 237.644104,335.578766 
z"/>
<path fill="#000000" opacity="1.000000" stroke="none" 
	d="
M375.877991,327.894653 
	C375.855530,321.577423 375.948975,315.744324 375.764130,309.919983 
	C375.671692,307.007355 376.521851,305.523651 379.647125,305.656830 
	C382.805969,305.791412 385.974396,305.686859 389.137970,305.733063 
	C390.397308,305.751465 391.500092,306.136353 391.524323,307.672333 
	C391.550537,309.334351 390.301758,309.432922 389.100861,309.463318 
	C387.769531,309.497040 386.434082,309.503387 385.104370,309.439514 
	C382.322266,309.305817 381.276794,310.643341 381.247559,313.363007 
	C381.217926,316.119171 381.810760,317.998505 385.071075,317.722412 
	C385.401154,317.694489 385.740479,317.702393 386.069183,317.743713 
	C387.628876,317.939758 389.834473,317.436127 389.782806,319.911987 
	C389.735870,322.162689 387.711182,322.374939 386.051819,322.187286 
	C381.713959,321.696625 381.217682,324.083282 381.197144,327.621552 
	C381.173737,331.651886 383.531525,331.739166 386.426147,331.681519 
	C388.047852,331.649200 389.762756,331.298889 391.265747,332.305603 
	C390.462646,335.488159 387.816162,336.055481 379.763123,335.435669 
	C374.539948,335.033661 376.303345,331.201050 375.877991,327.894653 
z"/>
<path fill="#000000" opacity="1.000000" stroke="none" 
	d="
M181.962830,324.957733 
	C181.964996,322.312836 181.856689,320.150177 181.993423,318.003174 
	C182.291611,313.321808 182.108597,309.203430 175.556931,309.933075 
	C174.203506,310.083801 172.891190,309.364227 172.963394,307.610931 
	C173.041321,305.718048 174.554749,305.709717 175.855972,305.700867 
	C181.824570,305.660400 187.793793,305.669281 193.762451,305.709961 
	C195.106522,305.719116 196.586273,305.856171 196.606750,307.701935 
	C196.625992,309.433838 195.233719,310.119232 193.904724,309.928864 
	C186.980331,308.937195 186.979813,313.183960 187.216461,318.126556 
	C187.476868,323.565979 187.275848,329.027435 187.275848,334.657990 
	C183.745712,335.998840 182.026871,335.066132 181.990219,331.416077 
	C181.970245,329.426514 181.971695,327.436768 181.962830,324.957733 
z"/>
<path fill="#000000" opacity="1.000000" stroke="none" 
	d="
M300.063599,317.022766 
	C300.063049,318.013733 300.051086,318.512817 300.064667,319.011169 
	C300.155090,322.329498 299.462555,325.933685 300.537262,328.896149 
	C302.003357,332.937500 306.526001,330.021149 309.393768,331.365875 
	C309.957916,331.630371 310.444794,332.059631 310.872070,332.348541 
	C310.885406,334.839111 309.377594,335.174591 307.581635,335.395874 
	C295.398773,336.896942 294.734253,336.317719 294.746094,323.958496 
	C294.750580,319.303558 294.688782,314.648163 294.743103,309.993958 
	C294.763123,308.277924 294.178528,306.011230 297.013245,305.886871 
	C299.982727,305.756592 299.903687,308.086578 300.015442,310.048584 
	C300.138153,312.203186 300.056580,314.369415 300.063599,317.022766 
z"/>
<path fill="#000000" opacity="1.000000" stroke="none" 
	d="
M230.203857,496.835510 
	C229.913254,495.329773 228.289642,493.914398 230.208481,493.093964 
	C231.800125,492.413422 232.556335,493.834686 233.094315,495.096527 
	C233.861984,496.897125 234.572693,498.722015 235.372192,500.695709 
	C238.246872,498.563599 237.218506,495.759674 237.086548,492.993073 
	C242.319183,493.292053 240.556168,498.764099 243.421112,500.364044 
	C245.882446,498.437012 244.928635,493.900085 249.966354,492.395325 
	C248.698349,498.600281 246.073059,503.190735 244.178253,507.987732 
	C240.654602,507.438202 241.347153,504.159332 239.538467,502.562500 
	C237.304108,503.582581 238.127670,506.907196 235.397583,507.941711 
	C232.284760,505.112793 231.979645,500.811279 230.203857,496.835510 
z"/>
<path fill="#000000" opacity="1.000000" stroke="none" 
	d="
M349.040955,499.715698 
	C349.826508,498.158997 350.235626,496.585663 352.951019,496.678192 
	C352.105621,501.080994 350.319122,504.681793 348.156281,508.042603 
	C345.175934,507.398041 345.754761,504.532440 343.973785,503.367340 
	C341.779358,504.056763 342.627380,507.505951 339.417419,508.026947 
	C337.023254,504.833832 335.626129,501.075012 335.083221,496.550690 
	C339.089905,496.373871 338.124420,500.306732 340.131134,501.517639 
	C342.155640,500.516052 341.322571,497.372894 343.747742,496.526337 
	C345.962341,496.893921 345.981537,499.087494 346.888397,500.552429 
	C348.215057,502.695557 348.489380,501.071808 349.040955,499.715698 
z"/>
<path fill="#000000" opacity="1.000000" stroke="none" 
	d="
M247.310852,271.808868 
	C253.569977,271.102509 255.893631,275.743500 260.237885,279.787323 
	C254.215775,280.730011 249.330887,280.665710 244.524673,280.056091 
	C241.947067,279.729156 242.638016,277.311798 243.118469,275.593353 
	C243.644196,273.712860 245.107834,272.583466 247.310852,271.808868 
z"/>
<path fill="#000000" opacity="1.000000" stroke="none" 
	d="
M310.756927,502.077332 
	C311.018188,499.552063 312.005188,497.558197 313.911835,496.927032 
	C316.835205,495.959351 317.728882,493.692352 318.468109,491.136688 
	C321.475647,493.164612 321.898651,496.214569 320.969299,507.549316 
	C312.403992,508.343140 312.267181,508.275330 310.756927,502.077332 
M317.031738,499.890167 
	C313.382904,501.323456 313.275421,501.991577 316.319519,505.298187 
	C318.125061,503.970123 317.708008,502.172333 317.031738,499.890167 
z"/>
<path fill="#000000" opacity="1.000000" stroke="none" 
	d="
M274.224731,506.480835 
	C273.196686,504.316437 272.553223,502.473083 273.287018,500.391876 
	C274.201691,497.797638 275.712860,495.816895 278.674225,496.181671 
	C281.608063,496.543091 282.796051,498.559723 282.579193,501.220520 
	C281.214600,503.133667 278.141571,501.678406 277.641022,504.424103 
	C278.606201,506.877869 281.060669,504.457520 283.036621,506.323120 
	C280.068298,509.145996 277.419739,509.306824 274.224731,506.480835 
z"/>
<path fill="#000000" opacity="1.000000" stroke="none" 
	d="
M323.223938,500.561523 
	C324.588470,497.240570 326.747009,495.655243 329.978668,496.141998 
	C332.104858,496.462280 333.623688,497.862213 334.111176,499.985168 
	C334.755829,502.792572 334.039917,505.264069 331.665436,507.081543 
	C329.939240,508.402832 327.993896,508.810394 326.075195,507.718628 
	C323.477051,506.240204 322.573273,503.862549 323.223938,500.561523 
M327.521820,504.756836 
	C330.919006,506.213562 330.620300,503.686279 330.647278,501.745331 
	C330.664703,500.491364 329.897308,499.214417 328.573975,499.579834 
	C325.991028,500.293060 326.052216,502.202850 327.521820,504.756836 
z"/>
<path fill="#000000" opacity="1.000000" stroke="none" 
	d="
M357.911743,504.837097 
	C357.620056,506.309662 357.801575,507.676575 355.733337,507.820618 
	C353.685059,504.435699 354.830627,500.767242 354.950226,496.749298 
	C358.113647,497.192291 361.592285,494.240326 363.797882,497.620667 
	C365.784088,500.664734 365.488281,504.410645 363.800232,508.112915 
	C359.800690,506.197205 363.499268,501.405548 360.106750,499.594818 
	C357.205688,500.283447 358.252838,502.663422 357.911743,504.837097 
z"/>
<path fill="#000000" opacity="1.000000" stroke="none" 
	d="
M267.197144,494.770813 
	C268.731232,495.527740 269.957214,496.320038 271.267731,497.166992 
	C271.237213,499.204346 268.887512,500.080780 268.988190,502.349426 
	C269.088867,504.618408 270.525177,505.338898 272.130188,506.345673 
	C270.661652,508.690918 268.961639,508.751099 267.151306,507.227478 
	C264.994232,505.411987 264.886017,497.161285 267.197144,494.770813 
z"/>
<path fill="#000000" opacity="1.000000" stroke="none" 
	d="
M297.373993,495.720764 
	C300.444153,493.287262 300.867249,497.142639 302.960815,497.119507 
	C299.232361,502.774200 299.350494,503.864380 303.848083,506.329498 
	C302.100220,508.828064 299.363739,509.140717 298.516693,506.680511 
	C297.382965,503.387756 295.920959,499.738556 297.373993,495.720764 
z"/>
<path fill="#000000" opacity="1.000000" stroke="none" 
	d="
M250.720810,499.573486 
	C252.105087,494.569000 255.213699,496.853943 258.467133,497.431976 
	C253.178558,499.350342 254.409149,504.341370 253.278671,508.691406 
	C249.521606,505.781189 251.228546,502.615082 250.720810,499.573486 
z"/>
<path fill="#000000" opacity="1.000000" stroke="none" 
	d="
M294.303345,503.844971 
	C294.071991,505.629395 294.728180,507.369171 292.040222,508.052216 
	C290.433136,504.133820 290.437347,500.363739 291.926392,496.027405 
	C295.572205,498.162292 293.792084,501.089081 294.303345,503.844971 
z"/>
<path fill="#000000" opacity="1.000000" stroke="none" 
	d="
M261.386566,496.836945 
	C263.090698,500.568451 262.420441,504.169464 261.341400,507.791168 
	C259.377258,504.184662 258.551819,500.539276 261.386566,496.836945 
z"/>
</svg>